<svg width="35" height="35" viewBox="0 0 35 35" fill="none" xmlns="http://www.w3.org/2000/svg">
    <path d="M4.25345 2.97376C3.67012 3.15732 2.88019 3.98949 2.6979 4.60138C2.58852 4.99299 2.55206 8.00348 2.55206 17.2797V29.444L2.86804 30.0804C3.06248 30.472 3.3663 30.8514 3.63366 31.0227C3.87672 31.194 5.97915 31.965 8.31248 32.7482C13.0278 34.3269 13.1979 34.3514 14.2673 33.7273C15.0937 33.2377 15.4462 32.5524 15.5191 31.2675L15.592 30.2395L17.9739 30.2028C20.1614 30.1661 20.4045 30.1416 20.9878 29.8724C21.7413 29.5297 22.6406 28.6119 23.0052 27.8042C23.2482 27.278 23.2725 26.9965 23.309 24.2308C23.3455 22.2605 23.309 21.0856 23.2239 20.7797C22.9323 19.8129 21.8628 19.507 21.1215 20.1801L20.7205 20.5349L20.6597 23.7168C20.6111 26.2867 20.5625 26.9231 20.4166 27.1066C20.0399 27.5594 19.5295 27.6573 17.5 27.6573H15.5555V17.7937C15.5555 11.014 15.5191 7.77096 15.4219 7.40383C15.2517 6.73075 14.5712 5.91082 13.9271 5.62935L13.4288 5.39683H16.4427C20.8177 5.3846 20.6597 5.26222 20.6597 8.54194C20.6597 11.0996 20.7448 11.4668 21.4618 11.8094C21.9844 12.0542 22.4705 11.9685 22.8958 11.5402C23.3212 11.1119 23.3698 10.7447 23.309 8.11362C23.2725 6.09439 23.2361 5.73949 23.0052 5.23774C22.6406 4.43005 21.7413 3.51222 20.9878 3.16956L20.3559 2.87585L12.5173 2.85138C6.98783 2.83914 4.55727 2.87585 4.25345 2.97376Z" fill="white" />
    <path d="M26.651 9.48425C25.9826 9.77795 25.8854 10.1328 25.8854 12.4825V14.5629H23.151C20.1614 14.5629 19.8698 14.6241 19.5903 15.236C19.3351 15.8112 19.408 16.3863 19.7969 16.778L20.1493 17.1328H23.0174H25.8854V19.3479V21.5629L26.2986 21.979C26.7726 22.4563 27.3316 22.5297 27.8299 22.1993C28.3281 21.8689 33.2986 16.8514 33.493 16.4965C33.5903 16.3129 33.6632 15.9825 33.6632 15.7622C33.6632 15.4073 33.3594 15.0647 30.8437 12.507C28.3767 10.0105 27.5382 9.28844 27.1371 9.30068C27.0885 9.31292 26.8698 9.38634 26.651 9.48425Z" fill="white" />
</svg>