<svg width="23" height="23" viewBox="0 0 23 23" fill="none" xmlns="http://www.w3.org/2000/svg">
    <path d="M7.05627 14.8181V2.11682L8.46752 2.82245L9.87877 2.11682L11.2874 2.82245L12.7149 2.11682L14.1125 2.82245L15.5145 2.11682L16.9227 2.82245L18.3463 2.11682L19.758 2.82245L21.1688 2.11682V11.9956" stroke="#fff" stroke-width="1.5" stroke-linejoin="round"/>
    <path d="M21.1688 11.9956V16.935C21.1688 17.8707 20.7971 18.7681 20.1354 19.4297C19.4738 20.0914 18.5764 20.4631 17.6407 20.4631V20.4631C16.7049 20.4631 15.8075 20.0914 15.1459 19.4297C14.4842 18.7681 14.1125 17.8707 14.1125 16.935V14.8181H2.11691C2.02401 14.8173 1.93189 14.835 1.8459 14.8701C1.75992 14.9053 1.68181 14.9573 1.61612 15.0229C1.55043 15.0886 1.49849 15.1667 1.46332 15.2527C1.42815 15.3387 1.41046 15.4308 1.41128 15.5237C1.41128 18.3462 1.70853 20.4631 4.93941 20.4631H17.6407" stroke="#fff" stroke-width="1.5" stroke-linejoin="round"/>
    <path d="M9.87872 6.35059H18.3462M12.7012 9.87871H18.3462" stroke="#fff" stroke-width="1.5" stroke-linecap="round" stroke-linejoin="round"/>
</svg>