<svg width="23" height="23" viewBox="0 0 23 23" fill="none" xmlns="http://www.w3.org/2000/svg">
    <path d="M11.3774 2.10937C6.23671 2.03994 2.03994 6.23671 2.10937 11.3774C2.17792 16.3077 6.19233 20.3221 11.1226 20.3906C16.2642 20.4609 20.4601 16.2642 20.3897 11.1234C20.3221 6.19233 16.3077 2.17792 11.3774 2.10937ZM16.933 16.4905C16.9155 16.5094 16.894 16.5243 16.8702 16.534C16.8463 16.5437 16.8205 16.548 16.7948 16.5467C16.769 16.5453 16.7439 16.5383 16.7212 16.5262C16.6984 16.5141 16.6786 16.4971 16.6632 16.4764C16.2701 15.9621 15.7887 15.5218 15.2415 15.1761C14.1227 14.458 12.705 14.0625 11.25 14.0625C9.79497 14.0625 8.37729 14.458 7.25844 15.1761C6.71127 15.5217 6.2299 15.9618 5.83681 16.476C5.82137 16.4966 5.80157 16.5136 5.77883 16.5258C5.75608 16.5379 5.73094 16.5449 5.70519 16.5462C5.67945 16.5476 5.65372 16.5432 5.62983 16.5335C5.60595 16.5238 5.58449 16.509 5.56699 16.49C4.27749 15.098 3.54704 13.2791 3.51562 11.3818C3.44399 7.10551 6.95302 3.52617 11.2311 3.51562C15.5092 3.50507 18.9844 6.97895 18.9844 11.25C18.9858 13.193 18.2531 15.0648 16.933 16.4905Z" fill="#e00" />
    <path d="M11.25 6.32812C10.3834 6.32812 9.59985 6.65288 9.04306 7.24307C8.48627 7.83325 8.2081 8.64932 8.27094 9.52515C8.39838 11.25 9.73476 12.6562 11.25 12.6562C12.7652 12.6562 14.099 11.25 14.229 9.52559C14.2941 8.65811 14.0181 7.84951 13.4521 7.24834C12.8931 6.65508 12.1109 6.32812 11.25 6.32812Z" fill="#e00" />
</svg>