<svg width="23" height="23" viewBox="0 0 23 23" fill="none" xmlns="http://www.w3.org/2000/svg">
    <path d="M18.2812 6.82812H4.21875C3.05377 6.82812 2.10938 7.77252 2.10938 8.9375V17.375C2.10938 18.54 3.05377 19.4844 4.21875 19.4844H18.2812C19.4462 19.4844 20.3906 18.54 20.3906 17.375V8.9375C20.3906 7.77252 19.4462 6.82812 18.2812 6.82812Z" stroke="#fff" stroke-width="1.3" stroke-linejoin="round"/>
    <path d="M18.0773 6.82815V5.50979C18.0772 5.18644 18.0058 4.86711 17.868 4.57456C17.7303 4.28201 17.5297 4.02347 17.2806 3.81738C17.0314 3.61129 16.7398 3.46273 16.4266 3.3823C16.1135 3.30186 15.7864 3.29155 15.4688 3.35208L3.89531 5.32742C3.39272 5.4232 2.93931 5.69136 2.61327 6.08567C2.28724 6.47997 2.10903 6.97569 2.10938 7.48733V9.64065" stroke="#fff" stroke-width="1.3" stroke-linejoin="round"/>
    <path d="M16.1719 14.5625C15.8937 14.5625 15.6219 14.48 15.3906 14.3255C15.1593 14.171 14.9791 13.9514 14.8727 13.6944C14.7662 13.4374 14.7384 13.1547 14.7926 12.8819C14.8469 12.6091 14.9808 12.3585 15.1775 12.1619C15.3742 11.9652 15.6247 11.8313 15.8975 11.777C16.1703 11.7228 16.4531 11.7506 16.71 11.857C16.967 11.9635 17.1866 12.1437 17.3411 12.375C17.4957 12.6062 17.5781 12.8781 17.5781 13.1563C17.5781 13.5292 17.43 13.8869 17.1662 14.1506C16.9025 14.4143 16.5448 14.5625 16.1719 14.5625Z" fill="#fff"/>
</svg>